<mxfile host="app.diagrams.net" agent="Mozilla/5.0 (Windows NT 10.0; Win64; x64) AppleWebKit/537.36 (KHTML, like Gecko) Chrome/128.0.0.0 Safari/537.36 OPR/114.0.0.0 (Edition Yx GX 03)" version="25.0.3">
  <diagram id="C5RBs43oDa-KdzZeNtuy" name="Page-1">
    <mxGraphModel dx="2358" dy="1045" grid="1" gridSize="10" guides="1" tooltips="1" connect="1" arrows="1" fold="1" page="1" pageScale="1" pageWidth="827" pageHeight="1169" math="0" shadow="0">
      <root>
        <mxCell id="WIyWlLk6GJQsqaUBKTNV-0" />
        <mxCell id="WIyWlLk6GJQsqaUBKTNV-1" parent="WIyWlLk6GJQsqaUBKTNV-0" />
        <mxCell id="zkfFHV4jXpPFQw0GAbJ--0" value="ensemble" style="swimlane;fontStyle=2;align=center;verticalAlign=top;childLayout=stackLayout;horizontal=1;startSize=26;horizontalStack=0;resizeParent=1;resizeLast=0;collapsible=1;marginBottom=0;rounded=0;shadow=0;strokeWidth=1;" parent="WIyWlLk6GJQsqaUBKTNV-1" vertex="1">
          <mxGeometry x="560" y="480" width="170" height="70" as="geometry">
            <mxRectangle x="40" y="80" width="160" height="26" as="alternateBounds" />
          </mxGeometry>
        </mxCell>
        <mxCell id="zkfFHV4jXpPFQw0GAbJ--1" value="+int id:{readonly}&#xa;+string name:{readonly}&#xa;" style="text;align=left;verticalAlign=top;spacingLeft=4;spacingRight=4;overflow=hidden;rotatable=0;points=[[0,0.5],[1,0.5]];portConstraint=eastwest;" parent="zkfFHV4jXpPFQw0GAbJ--0" vertex="1">
          <mxGeometry y="26" width="170" height="34" as="geometry" />
        </mxCell>
        <mxCell id="zkfFHV4jXpPFQw0GAbJ--4" value="" style="line;html=1;strokeWidth=1;align=left;verticalAlign=middle;spacingTop=-1;spacingLeft=3;spacingRight=3;rotatable=0;labelPosition=right;points=[];portConstraint=eastwest;" parent="zkfFHV4jXpPFQw0GAbJ--0" vertex="1">
          <mxGeometry y="60" width="170" height="6" as="geometry" />
        </mxCell>
        <mxCell id="zkfFHV4jXpPFQw0GAbJ--17" value="musician" style="swimlane;fontStyle=0;align=center;verticalAlign=top;childLayout=stackLayout;horizontal=1;startSize=26;horizontalStack=0;resizeParent=1;resizeLast=0;collapsible=1;marginBottom=0;rounded=0;shadow=0;strokeWidth=1;" parent="WIyWlLk6GJQsqaUBKTNV-1" vertex="1">
          <mxGeometry x="560" y="340" width="160" height="120" as="geometry">
            <mxRectangle x="400" y="360" width="160" height="26" as="alternateBounds" />
          </mxGeometry>
        </mxCell>
        <mxCell id="zkfFHV4jXpPFQw0GAbJ--18" value="+int id:{readonly}&#xa;+string name:{readonly}&#xa;+string surname:{readonly}&#xa;+string instrument:{readonly}&#xa;+byte image:{readonly}&#xa;" style="text;align=left;verticalAlign=top;spacingLeft=4;spacingRight=4;overflow=hidden;rotatable=0;points=[[0,0.5],[1,0.5]];portConstraint=eastwest;fontStyle=0" parent="zkfFHV4jXpPFQw0GAbJ--17" vertex="1">
          <mxGeometry y="26" width="160" height="84" as="geometry" />
        </mxCell>
        <mxCell id="zkfFHV4jXpPFQw0GAbJ--23" value="" style="line;html=1;strokeWidth=1;align=left;verticalAlign=middle;spacingTop=-1;spacingLeft=3;spacingRight=3;rotatable=0;labelPosition=right;points=[];portConstraint=eastwest;" parent="zkfFHV4jXpPFQw0GAbJ--17" vertex="1">
          <mxGeometry y="110" width="160" height="10" as="geometry" />
        </mxCell>
        <mxCell id="XdKVnloi1E5uSDludn07-0" value="record" style="swimlane;fontStyle=2;align=center;verticalAlign=top;childLayout=stackLayout;horizontal=1;startSize=26;horizontalStack=0;resizeParent=1;resizeLast=0;collapsible=1;marginBottom=0;rounded=0;shadow=0;strokeWidth=1;" parent="WIyWlLk6GJQsqaUBKTNV-1" vertex="1">
          <mxGeometry x="560" y="10" width="200" height="190" as="geometry">
            <mxRectangle x="560" y="10" width="160" height="26" as="alternateBounds" />
          </mxGeometry>
        </mxCell>
        <mxCell id="XdKVnloi1E5uSDludn07-1" value="+string name:{readonly}&#xa;+int id:{readonly}&#xa;+date year_of_release:{readonly}&#xa;+int label_number:{readonly}&#xa;+int sold_last_year:{readonly}&#xa;+int sold_current_year:{readonly}&#xa;+int unsold_copies:{readonly}Â &#xa;+int composition_id:{readonly}&#xa;+byte image:{readonly}" style="text;align=left;verticalAlign=top;spacingLeft=4;spacingRight=4;overflow=hidden;rotatable=0;points=[[0,0.5],[1,0.5]];portConstraint=eastwest;" parent="XdKVnloi1E5uSDludn07-0" vertex="1">
          <mxGeometry y="26" width="200" height="134" as="geometry" />
        </mxCell>
        <mxCell id="XdKVnloi1E5uSDludn07-3" value="" style="line;html=1;strokeWidth=1;align=left;verticalAlign=middle;spacingTop=-1;spacingLeft=3;spacingRight=3;rotatable=0;labelPosition=right;points=[];portConstraint=eastwest;" parent="XdKVnloi1E5uSDludn07-0" vertex="1">
          <mxGeometry y="160" width="200" height="30" as="geometry" />
        </mxCell>
        <mxCell id="XdKVnloi1E5uSDludn07-4" value="client" style="swimlane;fontStyle=2;align=center;verticalAlign=top;childLayout=stackLayout;horizontal=1;startSize=26;horizontalStack=0;resizeParent=1;resizeLast=0;collapsible=1;marginBottom=0;rounded=0;shadow=0;strokeWidth=1;" parent="WIyWlLk6GJQsqaUBKTNV-1" vertex="1">
          <mxGeometry x="540" y="570" width="200" height="130" as="geometry">
            <mxRectangle x="200" y="220" width="160" height="26" as="alternateBounds" />
          </mxGeometry>
        </mxCell>
        <mxCell id="XdKVnloi1E5uSDludn07-5" value="+string client_surname:{readonly}&#xa;+string client_name:{readonly}&#xa;+string client_patronymic:{readonly}&#xa;+date client_birthday:{readonly}&#xa;+int cient_phone_number:{readonly}&#xa;+int client_id:{readonly}&#xa;" style="text;align=left;verticalAlign=top;spacingLeft=4;spacingRight=4;overflow=hidden;rotatable=0;points=[[0,0.5],[1,0.5]];portConstraint=eastwest;" parent="XdKVnloi1E5uSDludn07-4" vertex="1">
          <mxGeometry y="26" width="200" height="94" as="geometry" />
        </mxCell>
        <mxCell id="XdKVnloi1E5uSDludn07-6" value="" style="line;html=1;strokeWidth=1;align=left;verticalAlign=middle;spacingTop=-1;spacingLeft=3;spacingRight=3;rotatable=0;labelPosition=right;points=[];portConstraint=eastwest;" parent="XdKVnloi1E5uSDludn07-4" vertex="1">
          <mxGeometry y="120" width="200" height="6" as="geometry" />
        </mxCell>
        <mxCell id="XdKVnloi1E5uSDludn07-7" value="composition" style="swimlane;fontStyle=2;align=center;verticalAlign=top;childLayout=stackLayout;horizontal=1;startSize=20;horizontalStack=0;resizeParent=1;resizeLast=0;collapsible=1;marginBottom=0;rounded=0;shadow=0;strokeWidth=1;" parent="WIyWlLk6GJQsqaUBKTNV-1" vertex="1">
          <mxGeometry x="560" y="220" width="160" height="100" as="geometry">
            <mxRectangle x="580" y="220" width="160" height="26" as="alternateBounds" />
          </mxGeometry>
        </mxCell>
        <mxCell id="XdKVnloi1E5uSDludn07-8" value="+int id:{readonly}&#xa;+string name:{readonly}&#xa;+int musician_id:{readonly}&#xa;+int ensemble_id:{readonly}" style="text;align=left;verticalAlign=top;spacingLeft=4;spacingRight=4;overflow=hidden;rotatable=0;points=[[0,0.5],[1,0.5]];portConstraint=eastwest;" parent="XdKVnloi1E5uSDludn07-7" vertex="1">
          <mxGeometry y="20" width="160" height="70" as="geometry" />
        </mxCell>
        <mxCell id="XdKVnloi1E5uSDludn07-9" value="" style="line;html=1;strokeWidth=1;align=left;verticalAlign=middle;spacingTop=-1;spacingLeft=3;spacingRight=3;rotatable=0;labelPosition=right;points=[];portConstraint=eastwest;" parent="XdKVnloi1E5uSDludn07-7" vertex="1">
          <mxGeometry y="90" width="160" height="8" as="geometry" />
        </mxCell>
        <mxCell id="irvMpXU3Zn4Wej3aWtt3-0" value="order" style="swimlane;fontStyle=2;align=center;verticalAlign=top;childLayout=stackLayout;horizontal=1;startSize=26;horizontalStack=0;resizeParent=1;resizeLast=0;collapsible=1;marginBottom=0;rounded=0;shadow=0;strokeWidth=1;" vertex="1" parent="WIyWlLk6GJQsqaUBKTNV-1">
          <mxGeometry x="570" y="720" width="140" height="100" as="geometry">
            <mxRectangle x="200" y="220" width="160" height="26" as="alternateBounds" />
          </mxGeometry>
        </mxCell>
        <mxCell id="irvMpXU3Zn4Wej3aWtt3-1" value="+int id:{readonly}&#xa;+date date:{readonly}&#xa;+date delivery:{readonly}&#xa;+string status:{readonly}&#xa;" style="text;align=left;verticalAlign=top;spacingLeft=4;spacingRight=4;overflow=hidden;rotatable=0;points=[[0,0.5],[1,0.5]];portConstraint=eastwest;" vertex="1" parent="irvMpXU3Zn4Wej3aWtt3-0">
          <mxGeometry y="26" width="140" height="64" as="geometry" />
        </mxCell>
        <mxCell id="irvMpXU3Zn4Wej3aWtt3-2" value="" style="line;html=1;strokeWidth=1;align=left;verticalAlign=middle;spacingTop=-1;spacingLeft=3;spacingRight=3;rotatable=0;labelPosition=right;points=[];portConstraint=eastwest;" vertex="1" parent="irvMpXU3Zn4Wej3aWtt3-0">
          <mxGeometry y="90" width="140" height="6" as="geometry" />
        </mxCell>
        <mxCell id="irvMpXU3Zn4Wej3aWtt3-3" value="" style="html=1;verticalAlign=bottom;labelBackgroundColor=none;endArrow=open;endFill=0;dashed=1;rounded=0;exitX=1.015;exitY=0.426;exitDx=0;exitDy=0;exitPerimeter=0;entryX=1.011;entryY=0.436;entryDx=0;entryDy=0;entryPerimeter=0;" edge="1" parent="WIyWlLk6GJQsqaUBKTNV-1" source="irvMpXU3Zn4Wej3aWtt3-1" target="XdKVnloi1E5uSDludn07-1">
          <mxGeometry width="160" relative="1" as="geometry">
            <mxPoint x="860" y="660" as="sourcePoint" />
            <mxPoint x="750" y="660.38" as="targetPoint" />
            <Array as="points">
              <mxPoint x="800" y="773" />
              <mxPoint x="800" y="440" />
              <mxPoint x="800" y="94" />
            </Array>
          </mxGeometry>
        </mxCell>
        <mxCell id="irvMpXU3Zn4Wej3aWtt3-4" value="[1]" style="text;html=1;align=center;verticalAlign=middle;resizable=0;points=[];autosize=1;strokeColor=none;fillColor=none;" vertex="1" parent="WIyWlLk6GJQsqaUBKTNV-1">
          <mxGeometry x="770" y="68" width="40" height="30" as="geometry" />
        </mxCell>
        <mxCell id="irvMpXU3Zn4Wej3aWtt3-5" value="[0..*]" style="text;html=1;align=center;verticalAlign=middle;resizable=0;points=[];autosize=1;strokeColor=none;fillColor=none;" vertex="1" parent="WIyWlLk6GJQsqaUBKTNV-1">
          <mxGeometry x="710" y="770" width="50" height="30" as="geometry" />
        </mxCell>
        <mxCell id="irvMpXU3Zn4Wej3aWtt3-6" value="" style="html=1;verticalAlign=bottom;labelBackgroundColor=none;endArrow=open;endFill=0;dashed=1;rounded=0;exitX=1.025;exitY=0.376;exitDx=0;exitDy=0;exitPerimeter=0;entryX=1;entryY=0.5;entryDx=0;entryDy=0;" edge="1" parent="WIyWlLk6GJQsqaUBKTNV-1" source="XdKVnloi1E5uSDludn07-8" target="zkfFHV4jXpPFQw0GAbJ--18">
          <mxGeometry width="160" relative="1" as="geometry">
            <mxPoint x="900" y="300" as="sourcePoint" />
            <mxPoint x="790" y="300.38" as="targetPoint" />
            <Array as="points">
              <mxPoint x="760" y="266" />
              <mxPoint x="760" y="408" />
            </Array>
          </mxGeometry>
        </mxCell>
        <mxCell id="irvMpXU3Zn4Wej3aWtt3-7" value="[1..*]" style="text;html=1;align=center;verticalAlign=middle;resizable=0;points=[];autosize=1;strokeColor=none;fillColor=none;" vertex="1" parent="WIyWlLk6GJQsqaUBKTNV-1">
          <mxGeometry x="710" y="238" width="50" height="30" as="geometry" />
        </mxCell>
        <mxCell id="irvMpXU3Zn4Wej3aWtt3-8" value="[0..*]" style="text;html=1;align=center;verticalAlign=middle;resizable=0;points=[];autosize=1;strokeColor=none;fillColor=none;" vertex="1" parent="WIyWlLk6GJQsqaUBKTNV-1">
          <mxGeometry x="715" y="408" width="50" height="30" as="geometry" />
        </mxCell>
        <mxCell id="irvMpXU3Zn4Wej3aWtt3-9" value="" style="html=1;verticalAlign=bottom;labelBackgroundColor=none;endArrow=open;endFill=0;dashed=1;rounded=0;exitX=0.987;exitY=0.251;exitDx=0;exitDy=0;exitPerimeter=0;entryX=1;entryY=0.5;entryDx=0;entryDy=0;" edge="1" parent="WIyWlLk6GJQsqaUBKTNV-1" source="irvMpXU3Zn4Wej3aWtt3-1" target="XdKVnloi1E5uSDludn07-5">
          <mxGeometry width="160" relative="1" as="geometry">
            <mxPoint x="900" y="620" as="sourcePoint" />
            <mxPoint x="790" y="620.38" as="targetPoint" />
            <Array as="points">
              <mxPoint x="760" y="762" />
              <mxPoint x="760" y="643" />
            </Array>
          </mxGeometry>
        </mxCell>
        <mxCell id="irvMpXU3Zn4Wej3aWtt3-10" value="[1]" style="text;html=1;align=center;verticalAlign=middle;resizable=0;points=[];autosize=1;strokeColor=none;fillColor=none;" vertex="1" parent="WIyWlLk6GJQsqaUBKTNV-1">
          <mxGeometry x="730" y="618" width="40" height="30" as="geometry" />
        </mxCell>
        <mxCell id="irvMpXU3Zn4Wej3aWtt3-11" value="[0..*]" style="text;html=1;align=center;verticalAlign=middle;resizable=0;points=[];autosize=1;strokeColor=none;fillColor=none;" vertex="1" parent="WIyWlLk6GJQsqaUBKTNV-1">
          <mxGeometry x="700" y="730" width="50" height="30" as="geometry" />
        </mxCell>
        <mxCell id="irvMpXU3Zn4Wej3aWtt3-12" value="records" style="swimlane;fontStyle=2;align=center;verticalAlign=top;childLayout=stackLayout;horizontal=1;startSize=26;horizontalStack=0;resizeParent=1;resizeLast=0;collapsible=1;marginBottom=0;rounded=0;shadow=0;strokeWidth=1;" vertex="1" parent="WIyWlLk6GJQsqaUBKTNV-1">
          <mxGeometry x="260" y="30" width="200" height="126" as="geometry">
            <mxRectangle x="560" y="10" width="160" height="26" as="alternateBounds" />
          </mxGeometry>
        </mxCell>
        <mxCell id="irvMpXU3Zn4Wej3aWtt3-13" value="+info()&#xa;+insert()&#xa;+delete()&#xa;+update()&#xa;+find()&#xa;" style="text;align=left;verticalAlign=top;spacingLeft=4;spacingRight=4;overflow=hidden;rotatable=0;points=[[0,0.5],[1,0.5]];portConstraint=eastwest;" vertex="1" parent="irvMpXU3Zn4Wej3aWtt3-12">
          <mxGeometry y="26" width="200" height="70" as="geometry" />
        </mxCell>
        <mxCell id="irvMpXU3Zn4Wej3aWtt3-14" value="" style="line;html=1;strokeWidth=1;align=left;verticalAlign=middle;spacingTop=-1;spacingLeft=3;spacingRight=3;rotatable=0;labelPosition=right;points=[];portConstraint=eastwest;" vertex="1" parent="irvMpXU3Zn4Wej3aWtt3-12">
          <mxGeometry y="96" width="200" height="30" as="geometry" />
        </mxCell>
        <mxCell id="irvMpXU3Zn4Wej3aWtt3-21" value="" style="rhombus;aspect=fixed;" vertex="1" parent="WIyWlLk6GJQsqaUBKTNV-1">
          <mxGeometry x="460" y="130" width="10" height="10" as="geometry" />
        </mxCell>
        <mxCell id="irvMpXU3Zn4Wej3aWtt3-23" value="" style="endArrow=none;html=1;rounded=0;align=center;verticalAlign=bottom;labelBackgroundColor=none;" edge="1" source="irvMpXU3Zn4Wej3aWtt3-21" parent="WIyWlLk6GJQsqaUBKTNV-1">
          <mxGeometry relative="1" as="geometry">
            <mxPoint x="560" y="40" as="targetPoint" />
            <Array as="points">
              <mxPoint x="520" y="135" />
              <mxPoint x="520" y="40" />
            </Array>
          </mxGeometry>
        </mxCell>
        <mxCell id="irvMpXU3Zn4Wej3aWtt3-25" value="[1..*]" style="text;html=1;align=center;verticalAlign=middle;resizable=0;points=[];autosize=1;strokeColor=none;fillColor=none;" vertex="1" parent="WIyWlLk6GJQsqaUBKTNV-1">
          <mxGeometry x="470" y="110" width="50" height="30" as="geometry" />
        </mxCell>
        <mxCell id="irvMpXU3Zn4Wej3aWtt3-26" value="compositions" style="swimlane;fontStyle=2;align=center;verticalAlign=top;childLayout=stackLayout;horizontal=1;startSize=20;horizontalStack=0;resizeParent=1;resizeLast=0;collapsible=1;marginBottom=0;rounded=0;shadow=0;strokeWidth=1;" vertex="1" parent="WIyWlLk6GJQsqaUBKTNV-1">
          <mxGeometry x="280" y="180" width="160" height="118" as="geometry">
            <mxRectangle x="580" y="220" width="160" height="26" as="alternateBounds" />
          </mxGeometry>
        </mxCell>
        <mxCell id="irvMpXU3Zn4Wej3aWtt3-27" value="+info()&#xa;+insert()&#xa;+delete()&#xa;+update()&#xa;+find()&#xa;" style="text;align=left;verticalAlign=top;spacingLeft=4;spacingRight=4;overflow=hidden;rotatable=0;points=[[0,0.5],[1,0.5]];portConstraint=eastwest;" vertex="1" parent="irvMpXU3Zn4Wej3aWtt3-26">
          <mxGeometry y="20" width="160" height="80" as="geometry" />
        </mxCell>
        <mxCell id="irvMpXU3Zn4Wej3aWtt3-28" value="" style="line;html=1;strokeWidth=1;align=left;verticalAlign=middle;spacingTop=-1;spacingLeft=3;spacingRight=3;rotatable=0;labelPosition=right;points=[];portConstraint=eastwest;" vertex="1" parent="irvMpXU3Zn4Wej3aWtt3-26">
          <mxGeometry y="100" width="160" height="8" as="geometry" />
        </mxCell>
        <mxCell id="irvMpXU3Zn4Wej3aWtt3-30" value="" style="rhombus;aspect=fixed;" vertex="1" parent="WIyWlLk6GJQsqaUBKTNV-1">
          <mxGeometry x="440" y="268" width="10" height="10" as="geometry" />
        </mxCell>
        <mxCell id="irvMpXU3Zn4Wej3aWtt3-31" value="" style="endArrow=none;html=1;rounded=0;align=center;verticalAlign=bottom;labelBackgroundColor=none;" edge="1" source="irvMpXU3Zn4Wej3aWtt3-30" parent="WIyWlLk6GJQsqaUBKTNV-1">
          <mxGeometry relative="1" as="geometry">
            <mxPoint x="560" y="239" as="targetPoint" />
            <Array as="points">
              <mxPoint x="520" y="273" />
              <mxPoint x="520" y="240" />
            </Array>
          </mxGeometry>
        </mxCell>
        <mxCell id="irvMpXU3Zn4Wej3aWtt3-32" value="[0..*]" style="text;html=1;align=center;verticalAlign=middle;resizable=0;points=[];autosize=1;strokeColor=none;fillColor=none;" vertex="1" parent="WIyWlLk6GJQsqaUBKTNV-1">
          <mxGeometry x="440" y="248" width="50" height="30" as="geometry" />
        </mxCell>
        <mxCell id="irvMpXU3Zn4Wej3aWtt3-33" value="musicians" style="swimlane;fontStyle=0;align=center;verticalAlign=top;childLayout=stackLayout;horizontal=1;startSize=26;horizontalStack=0;resizeParent=1;resizeLast=0;collapsible=1;marginBottom=0;rounded=0;shadow=0;strokeWidth=1;" vertex="1" parent="WIyWlLk6GJQsqaUBKTNV-1">
          <mxGeometry x="280" y="330" width="160" height="120" as="geometry">
            <mxRectangle x="400" y="360" width="160" height="26" as="alternateBounds" />
          </mxGeometry>
        </mxCell>
        <mxCell id="irvMpXU3Zn4Wej3aWtt3-34" value="+info()&#xa;+insert()&#xa;+delete()&#xa;+update()&#xa;+find()" style="text;align=left;verticalAlign=top;spacingLeft=4;spacingRight=4;overflow=hidden;rotatable=0;points=[[0,0.5],[1,0.5]];portConstraint=eastwest;fontStyle=0" vertex="1" parent="irvMpXU3Zn4Wej3aWtt3-33">
          <mxGeometry y="26" width="160" height="84" as="geometry" />
        </mxCell>
        <mxCell id="irvMpXU3Zn4Wej3aWtt3-35" value="" style="line;html=1;strokeWidth=1;align=left;verticalAlign=middle;spacingTop=-1;spacingLeft=3;spacingRight=3;rotatable=0;labelPosition=right;points=[];portConstraint=eastwest;" vertex="1" parent="irvMpXU3Zn4Wej3aWtt3-33">
          <mxGeometry y="110" width="160" height="10" as="geometry" />
        </mxCell>
        <mxCell id="irvMpXU3Zn4Wej3aWtt3-36" value="" style="rhombus;aspect=fixed;" vertex="1" parent="WIyWlLk6GJQsqaUBKTNV-1">
          <mxGeometry x="440" y="428" width="10" height="10" as="geometry" />
        </mxCell>
        <mxCell id="irvMpXU3Zn4Wej3aWtt3-37" value="" style="endArrow=none;html=1;rounded=0;align=center;verticalAlign=bottom;labelBackgroundColor=none;" edge="1" source="irvMpXU3Zn4Wej3aWtt3-36" parent="WIyWlLk6GJQsqaUBKTNV-1">
          <mxGeometry relative="1" as="geometry">
            <mxPoint x="560" y="370" as="targetPoint" />
            <Array as="points">
              <mxPoint x="520" y="433" />
              <mxPoint x="520" y="370" />
            </Array>
          </mxGeometry>
        </mxCell>
        <mxCell id="irvMpXU3Zn4Wej3aWtt3-39" value="[0..*]" style="text;html=1;align=center;verticalAlign=middle;resizable=0;points=[];autosize=1;strokeColor=none;fillColor=none;" vertex="1" parent="WIyWlLk6GJQsqaUBKTNV-1">
          <mxGeometry x="455" y="398" width="50" height="30" as="geometry" />
        </mxCell>
        <mxCell id="irvMpXU3Zn4Wej3aWtt3-40" value="ensembles" style="swimlane;fontStyle=2;align=center;verticalAlign=top;childLayout=stackLayout;horizontal=1;startSize=26;horizontalStack=0;resizeParent=1;resizeLast=0;collapsible=1;marginBottom=0;rounded=0;shadow=0;strokeWidth=1;" vertex="1" parent="WIyWlLk6GJQsqaUBKTNV-1">
          <mxGeometry x="280" y="469" width="170" height="116" as="geometry">
            <mxRectangle x="40" y="80" width="160" height="26" as="alternateBounds" />
          </mxGeometry>
        </mxCell>
        <mxCell id="irvMpXU3Zn4Wej3aWtt3-41" value="+info()&#xa;+insert()&#xa;+delete()&#xa;+update()&#xa;+find()&#xa;" style="text;align=left;verticalAlign=top;spacingLeft=4;spacingRight=4;overflow=hidden;rotatable=0;points=[[0,0.5],[1,0.5]];portConstraint=eastwest;" vertex="1" parent="irvMpXU3Zn4Wej3aWtt3-40">
          <mxGeometry y="26" width="170" height="84" as="geometry" />
        </mxCell>
        <mxCell id="irvMpXU3Zn4Wej3aWtt3-42" value="" style="line;html=1;strokeWidth=1;align=left;verticalAlign=middle;spacingTop=-1;spacingLeft=3;spacingRight=3;rotatable=0;labelPosition=right;points=[];portConstraint=eastwest;" vertex="1" parent="irvMpXU3Zn4Wej3aWtt3-40">
          <mxGeometry y="110" width="170" height="6" as="geometry" />
        </mxCell>
        <mxCell id="irvMpXU3Zn4Wej3aWtt3-43" value="" style="rhombus;aspect=fixed;" vertex="1" parent="WIyWlLk6GJQsqaUBKTNV-1">
          <mxGeometry x="450" y="565" width="15" height="15" as="geometry" />
        </mxCell>
        <mxCell id="irvMpXU3Zn4Wej3aWtt3-44" value="" style="endArrow=none;html=1;rounded=0;align=center;verticalAlign=bottom;labelBackgroundColor=none;entryX=-0.016;entryY=0.11;entryDx=0;entryDy=0;entryPerimeter=0;" edge="1" source="irvMpXU3Zn4Wej3aWtt3-43" parent="WIyWlLk6GJQsqaUBKTNV-1" target="zkfFHV4jXpPFQw0GAbJ--1">
          <mxGeometry relative="1" as="geometry">
            <mxPoint x="620" y="540" as="targetPoint" />
            <Array as="points">
              <mxPoint x="520" y="573" />
              <mxPoint x="520" y="510" />
            </Array>
          </mxGeometry>
        </mxCell>
        <mxCell id="irvMpXU3Zn4Wej3aWtt3-46" value="[0..*]" style="text;html=1;align=center;verticalAlign=middle;resizable=0;points=[];autosize=1;strokeColor=none;fillColor=none;" vertex="1" parent="WIyWlLk6GJQsqaUBKTNV-1">
          <mxGeometry x="465" y="540" width="50" height="30" as="geometry" />
        </mxCell>
        <mxCell id="irvMpXU3Zn4Wej3aWtt3-47" value="clients" style="swimlane;fontStyle=2;align=center;verticalAlign=top;childLayout=stackLayout;horizontal=1;startSize=26;horizontalStack=0;resizeParent=1;resizeLast=0;collapsible=1;marginBottom=0;rounded=0;shadow=0;strokeWidth=1;" vertex="1" parent="WIyWlLk6GJQsqaUBKTNV-1">
          <mxGeometry x="250" y="600" width="200" height="120" as="geometry">
            <mxRectangle x="200" y="220" width="160" height="26" as="alternateBounds" />
          </mxGeometry>
        </mxCell>
        <mxCell id="irvMpXU3Zn4Wej3aWtt3-48" value="+info()&#xa;+insert()&#xa;+delete()&#xa;+update()&#xa;+find()&#xa;" style="text;align=left;verticalAlign=top;spacingLeft=4;spacingRight=4;overflow=hidden;rotatable=0;points=[[0,0.5],[1,0.5]];portConstraint=eastwest;" vertex="1" parent="irvMpXU3Zn4Wej3aWtt3-47">
          <mxGeometry y="26" width="200" height="84" as="geometry" />
        </mxCell>
        <mxCell id="irvMpXU3Zn4Wej3aWtt3-49" value="" style="line;html=1;strokeWidth=1;align=left;verticalAlign=middle;spacingTop=-1;spacingLeft=3;spacingRight=3;rotatable=0;labelPosition=right;points=[];portConstraint=eastwest;" vertex="1" parent="irvMpXU3Zn4Wej3aWtt3-47">
          <mxGeometry y="110" width="200" height="6" as="geometry" />
        </mxCell>
        <mxCell id="irvMpXU3Zn4Wej3aWtt3-50" value="" style="rhombus;aspect=fixed;" vertex="1" parent="WIyWlLk6GJQsqaUBKTNV-1">
          <mxGeometry x="447.5" y="680" width="10" height="10" as="geometry" />
        </mxCell>
        <mxCell id="irvMpXU3Zn4Wej3aWtt3-51" value="" style="endArrow=none;html=1;rounded=0;align=center;verticalAlign=bottom;labelBackgroundColor=none;entryX=0.002;entryY=0.17;entryDx=0;entryDy=0;entryPerimeter=0;" edge="1" source="irvMpXU3Zn4Wej3aWtt3-50" parent="WIyWlLk6GJQsqaUBKTNV-1" target="XdKVnloi1E5uSDludn07-5">
          <mxGeometry relative="1" as="geometry">
            <mxPoint x="550" y="690" as="targetPoint" />
            <Array as="points">
              <mxPoint x="510" y="685" />
              <mxPoint x="510" y="612" />
            </Array>
          </mxGeometry>
        </mxCell>
        <mxCell id="irvMpXU3Zn4Wej3aWtt3-53" value="[0..*]" style="text;html=1;align=center;verticalAlign=middle;resizable=0;points=[];autosize=1;strokeColor=none;fillColor=none;" vertex="1" parent="WIyWlLk6GJQsqaUBKTNV-1">
          <mxGeometry x="455" y="660" width="50" height="30" as="geometry" />
        </mxCell>
        <mxCell id="irvMpXU3Zn4Wej3aWtt3-54" value="orders" style="swimlane;fontStyle=2;align=center;verticalAlign=top;childLayout=stackLayout;horizontal=1;startSize=26;horizontalStack=0;resizeParent=1;resizeLast=0;collapsible=1;marginBottom=0;rounded=0;shadow=0;strokeWidth=1;" vertex="1" parent="WIyWlLk6GJQsqaUBKTNV-1">
          <mxGeometry x="280" y="730" width="140" height="116" as="geometry">
            <mxRectangle x="200" y="220" width="160" height="26" as="alternateBounds" />
          </mxGeometry>
        </mxCell>
        <mxCell id="irvMpXU3Zn4Wej3aWtt3-55" value="+info()&#xa;+insert()&#xa;+delete()&#xa;+update()&#xa;+find()&#xa;" style="text;align=left;verticalAlign=top;spacingLeft=4;spacingRight=4;overflow=hidden;rotatable=0;points=[[0,0.5],[1,0.5]];portConstraint=eastwest;" vertex="1" parent="irvMpXU3Zn4Wej3aWtt3-54">
          <mxGeometry y="26" width="140" height="74" as="geometry" />
        </mxCell>
        <mxCell id="irvMpXU3Zn4Wej3aWtt3-56" value="" style="line;html=1;strokeWidth=1;align=left;verticalAlign=middle;spacingTop=-1;spacingLeft=3;spacingRight=3;rotatable=0;labelPosition=right;points=[];portConstraint=eastwest;" vertex="1" parent="irvMpXU3Zn4Wej3aWtt3-54">
          <mxGeometry y="100" width="140" height="6" as="geometry" />
        </mxCell>
        <mxCell id="irvMpXU3Zn4Wej3aWtt3-59" value="[0..*]" style="text;html=1;align=center;verticalAlign=middle;resizable=0;points=[];autosize=1;strokeColor=none;fillColor=none;" vertex="1" parent="WIyWlLk6GJQsqaUBKTNV-1">
          <mxGeometry x="440" y="790" width="50" height="30" as="geometry" />
        </mxCell>
        <mxCell id="irvMpXU3Zn4Wej3aWtt3-60" value="" style="endArrow=diamondThin;endFill=1;endSize=24;html=1;rounded=0;exitX=0.021;exitY=0.009;exitDx=0;exitDy=0;exitPerimeter=0;entryX=1.02;entryY=1.013;entryDx=0;entryDy=0;entryPerimeter=0;" edge="1" parent="WIyWlLk6GJQsqaUBKTNV-1" source="irvMpXU3Zn4Wej3aWtt3-1" target="irvMpXU3Zn4Wej3aWtt3-55">
          <mxGeometry width="160" relative="1" as="geometry">
            <mxPoint x="80" y="741" as="sourcePoint" />
            <mxPoint x="210" y="846" as="targetPoint" />
            <Array as="points">
              <mxPoint x="530" y="747" />
              <mxPoint x="530" y="831" />
              <mxPoint x="450" y="831" />
            </Array>
          </mxGeometry>
        </mxCell>
        <mxCell id="irvMpXU3Zn4Wej3aWtt3-61" value="+update()&lt;div&gt;+insert()&lt;/div&gt;&lt;div&gt;+delete()&lt;/div&gt;" style="html=1;outlineConnect=0;whiteSpace=wrap;fillColor=#FFFFFF;shape=mxgraph.archimate3.passive;align=left;" vertex="1" parent="WIyWlLk6GJQsqaUBKTNV-1">
          <mxGeometry x="50" y="238" width="140" height="72" as="geometry" />
        </mxCell>
        <mxCell id="irvMpXU3Zn4Wej3aWtt3-62" value="Ð Ð°Ð±Ð¾ÑÐ° Ñ Ð±Ð°Ð·Ð¾Ð¹ Ð´Ð°Ð½Ð½ÑÑ" style="text;html=1;align=center;verticalAlign=middle;resizable=0;points=[];autosize=1;strokeColor=none;fillColor=none;" vertex="1" parent="WIyWlLk6GJQsqaUBKTNV-1">
          <mxGeometry x="40" y="230" width="150" height="30" as="geometry" />
        </mxCell>
        <mxCell id="irvMpXU3Zn4Wej3aWtt3-72" value="" style="edgeStyle=elbowEdgeStyle;html=1;endArrow=block;elbow=vertical;endFill=0;dashed=1;rounded=0;exitX=0;exitY=0;exitDx=0;exitDy=0;" edge="1" parent="WIyWlLk6GJQsqaUBKTNV-1" source="irvMpXU3Zn4Wej3aWtt3-12" target="irvMpXU3Zn4Wej3aWtt3-61">
          <mxGeometry width="160" relative="1" as="geometry">
            <mxPoint x="180" y="80" as="sourcePoint" />
            <mxPoint x="410" y="250" as="targetPoint" />
            <Array as="points">
              <mxPoint x="210" y="30" />
            </Array>
          </mxGeometry>
        </mxCell>
        <mxCell id="irvMpXU3Zn4Wej3aWtt3-74" value="" style="endArrow=none;html=1;rounded=0;" edge="1" parent="WIyWlLk6GJQsqaUBKTNV-1">
          <mxGeometry width="50" height="50" relative="1" as="geometry">
            <mxPoint x="120" y="230" as="sourcePoint" />
            <mxPoint x="260" y="30" as="targetPoint" />
            <Array as="points">
              <mxPoint x="120" y="30" />
            </Array>
          </mxGeometry>
        </mxCell>
        <mxCell id="irvMpXU3Zn4Wej3aWtt3-75" value="" style="edgeStyle=elbowEdgeStyle;html=1;endArrow=block;elbow=vertical;endFill=0;dashed=1;rounded=0;exitX=-0.002;exitY=0.094;exitDx=0;exitDy=0;exitPerimeter=0;" edge="1" parent="WIyWlLk6GJQsqaUBKTNV-1" source="irvMpXU3Zn4Wej3aWtt3-27" target="irvMpXU3Zn4Wej3aWtt3-61">
          <mxGeometry width="160" relative="1" as="geometry">
            <mxPoint x="240" y="210" as="sourcePoint" />
            <mxPoint x="190" y="280" as="targetPoint" />
            <Array as="points">
              <mxPoint x="240" y="260" />
            </Array>
          </mxGeometry>
        </mxCell>
        <mxCell id="irvMpXU3Zn4Wej3aWtt3-76" value="" style="endArrow=none;html=1;rounded=0;" edge="1" parent="WIyWlLk6GJQsqaUBKTNV-1">
          <mxGeometry width="50" height="50" relative="1" as="geometry">
            <mxPoint x="200" y="260" as="sourcePoint" />
            <mxPoint x="280" y="260" as="targetPoint" />
          </mxGeometry>
        </mxCell>
        <mxCell id="irvMpXU3Zn4Wej3aWtt3-77" value="" style="edgeStyle=elbowEdgeStyle;html=1;endArrow=block;elbow=vertical;endFill=0;dashed=1;rounded=0;exitX=0.003;exitY=-0.002;exitDx=0;exitDy=0;exitPerimeter=0;" edge="1" parent="WIyWlLk6GJQsqaUBKTNV-1" source="irvMpXU3Zn4Wej3aWtt3-34" target="irvMpXU3Zn4Wej3aWtt3-61">
          <mxGeometry width="160" relative="1" as="geometry">
            <mxPoint x="240" y="298" as="sourcePoint" />
            <mxPoint x="150" y="350" as="targetPoint" />
            <Array as="points">
              <mxPoint x="200" y="350" />
            </Array>
          </mxGeometry>
        </mxCell>
        <mxCell id="irvMpXU3Zn4Wej3aWtt3-78" value="" style="endArrow=none;html=1;rounded=0;" edge="1" parent="WIyWlLk6GJQsqaUBKTNV-1">
          <mxGeometry width="50" height="50" relative="1" as="geometry">
            <mxPoint x="120" y="320" as="sourcePoint" />
            <mxPoint x="280" y="350" as="targetPoint" />
            <Array as="points">
              <mxPoint x="120" y="350" />
            </Array>
          </mxGeometry>
        </mxCell>
        <mxCell id="irvMpXU3Zn4Wej3aWtt3-79" value="" style="edgeStyle=elbowEdgeStyle;html=1;endArrow=block;elbow=vertical;endFill=0;dashed=1;rounded=0;exitX=-0.009;exitY=0.021;exitDx=0;exitDy=0;exitPerimeter=0;" edge="1" parent="WIyWlLk6GJQsqaUBKTNV-1" target="irvMpXU3Zn4Wej3aWtt3-61">
          <mxGeometry width="160" relative="1" as="geometry">
            <mxPoint x="280" y="476" as="sourcePoint" />
            <mxPoint x="121" y="428" as="targetPoint" />
            <Array as="points">
              <mxPoint x="200" y="470" />
            </Array>
          </mxGeometry>
        </mxCell>
        <mxCell id="irvMpXU3Zn4Wej3aWtt3-80" value="" style="endArrow=none;html=1;rounded=0;" edge="1" parent="WIyWlLk6GJQsqaUBKTNV-1">
          <mxGeometry width="50" height="50" relative="1" as="geometry">
            <mxPoint x="280" y="470" as="sourcePoint" />
            <mxPoint x="120" y="350" as="targetPoint" />
            <Array as="points">
              <mxPoint x="120" y="470" />
            </Array>
          </mxGeometry>
        </mxCell>
        <mxCell id="irvMpXU3Zn4Wej3aWtt3-81" value="" style="edgeStyle=elbowEdgeStyle;html=1;endArrow=block;elbow=vertical;endFill=0;dashed=1;rounded=0;exitX=-0.009;exitY=0.021;exitDx=0;exitDy=0;exitPerimeter=0;" edge="1" parent="WIyWlLk6GJQsqaUBKTNV-1" target="irvMpXU3Zn4Wej3aWtt3-61">
          <mxGeometry width="160" relative="1" as="geometry">
            <mxPoint x="250" y="609" as="sourcePoint" />
            <mxPoint x="91" y="561" as="targetPoint" />
            <Array as="points">
              <mxPoint x="210" y="600" />
            </Array>
          </mxGeometry>
        </mxCell>
        <mxCell id="irvMpXU3Zn4Wej3aWtt3-82" value="" style="endArrow=none;html=1;rounded=0;entryX=0;entryY=0;entryDx=0;entryDy=0;" edge="1" parent="WIyWlLk6GJQsqaUBKTNV-1" target="irvMpXU3Zn4Wej3aWtt3-47">
          <mxGeometry width="50" height="50" relative="1" as="geometry">
            <mxPoint x="120" y="470" as="sourcePoint" />
            <mxPoint x="380" y="510" as="targetPoint" />
            <Array as="points">
              <mxPoint x="120" y="470" />
              <mxPoint x="120" y="600" />
            </Array>
          </mxGeometry>
        </mxCell>
        <mxCell id="irvMpXU3Zn4Wej3aWtt3-83" value="" style="edgeStyle=elbowEdgeStyle;html=1;endArrow=block;elbow=vertical;endFill=0;dashed=1;rounded=0;exitX=-0.009;exitY=0.021;exitDx=0;exitDy=0;exitPerimeter=0;" edge="1" parent="WIyWlLk6GJQsqaUBKTNV-1" target="irvMpXU3Zn4Wej3aWtt3-61">
          <mxGeometry width="160" relative="1" as="geometry">
            <mxPoint x="280" y="738" as="sourcePoint" />
            <mxPoint x="121" y="690" as="targetPoint" />
            <Array as="points">
              <mxPoint x="201" y="730" />
            </Array>
          </mxGeometry>
        </mxCell>
        <mxCell id="irvMpXU3Zn4Wej3aWtt3-84" value="" style="endArrow=none;html=1;rounded=0;" edge="1" parent="WIyWlLk6GJQsqaUBKTNV-1">
          <mxGeometry width="50" height="50" relative="1" as="geometry">
            <mxPoint x="120" y="600" as="sourcePoint" />
            <mxPoint x="280" y="730" as="targetPoint" />
            <Array as="points">
              <mxPoint x="120" y="730" />
            </Array>
          </mxGeometry>
        </mxCell>
      </root>
    </mxGraphModel>
  </diagram>
</mxfile>
